<svg width="17" height="17" viewBox="0 0 17 17" fill="none" xmlns="http://www.w3.org/2000/svg">
<g clip-path="url(#clip0_3_1552)">
<path d="M8.49609 1.41602V2.83203" stroke="#A3F7BF" stroke-opacity="0.5" stroke-width="1.27442" stroke-linecap="round" stroke-linejoin="round"/>
<path d="M3.49048 3.49048L4.48877 4.48877" stroke="#A3F7BF" stroke-opacity="0.5" stroke-width="1.27442" stroke-linecap="round" stroke-linejoin="round"/>
<path d="M14.1602 8.49609H15.5762" stroke="#A3F7BF" stroke-opacity="0.5" stroke-width="1.27442" stroke-linecap="round" stroke-linejoin="round"/>
<path d="M13.5017 3.49048L12.5034 4.48877" stroke="#A3F7BF" stroke-opacity="0.5" stroke-width="1.27442" stroke-linecap="round" stroke-linejoin="round"/>
<path d="M11.2907 8.95641C11.3778 8.42859 11.3136 7.88688 11.1057 7.39401C10.8977 6.90114 10.5543 6.47725 10.1154 6.17144C9.67643 5.86563 9.15985 5.69039 8.62544 5.66603C8.09103 5.64166 7.56065 5.76915 7.0957 6.03375" stroke="#A3F7BF" stroke-opacity="0.5" stroke-width="1.27442" stroke-linecap="round" stroke-linejoin="round"/>
<path d="M9.20413 15.5762H4.95607C4.28628 15.5761 3.63026 15.3859 3.06422 15.0278C2.49818 14.6697 2.04534 14.1584 1.7583 13.5532C1.47126 12.948 1.36179 12.2739 1.44262 11.609C1.52345 10.944 1.79125 10.3157 2.21492 9.79694C2.63859 9.27816 3.20074 8.89022 3.83609 8.67817C4.47144 8.46613 5.1539 8.43868 5.80423 8.59902C6.45455 8.75936 7.04604 9.10091 7.51001 9.58399C7.97397 10.0671 8.29136 10.6719 8.42532 11.3281H9.20413C9.76746 11.3281 10.3077 11.5519 10.706 11.9502C11.1044 12.3486 11.3282 12.8888 11.3282 13.4522C11.3282 14.0155 11.1044 14.5557 10.706 14.9541C10.3077 15.3524 9.76746 15.5762 9.20413 15.5762Z" stroke="#A3F7BF" stroke-opacity="0.5" stroke-width="1.27442" stroke-linecap="round" stroke-linejoin="round"/>
</g>
<defs>
<clipPath id="clip0_3_1552">
<rect width="16.9922" height="16.9922" fill="white"/>
</clipPath>
</defs>
</svg>
