<svg width="20" height="20" viewBox="0 0 20 20" fill="none" xmlns="http://www.w3.org/2000/svg">
<path d="M8.55347 17.4937C8.6997 17.7469 8.91002 17.9572 9.16328 18.1034C9.41655 18.2496 9.70384 18.3266 9.99628 18.3266C10.2887 18.3266 10.576 18.2496 10.8293 18.1034C11.0825 17.9572 11.2929 17.7469 11.4391 17.4937" stroke="#A3F7BF" stroke-opacity="0.5" stroke-width="1.66606" stroke-linecap="round" stroke-linejoin="round"/>
<path d="M2.7174 12.767C2.60858 12.8863 2.53676 13.0346 2.51069 13.1939C2.48462 13.3533 2.50541 13.5168 2.57054 13.6645C2.63568 13.8122 2.74234 13.9379 2.87756 14.0261C3.01277 14.1143 3.17072 14.1614 3.33218 14.1615H16.6607C16.8221 14.1616 16.9801 14.1147 17.1154 14.0266C17.2507 13.9386 17.3575 13.8131 17.4228 13.6654C17.4881 13.5178 17.5091 13.3544 17.4833 13.195C17.4574 13.0356 17.3858 12.8872 17.2771 12.7678C16.1692 11.6257 14.9946 10.412 14.9946 6.66421C14.9946 5.3386 14.468 4.06729 13.5307 3.12995C12.5933 2.19261 11.322 1.66602 9.99643 1.66602C8.67083 1.66602 7.39952 2.19261 6.46218 3.12995C5.52484 4.06729 4.99824 5.3386 4.99824 6.66421C4.99824 10.412 3.82284 11.6257 2.7174 12.767Z" stroke="#A3F7BF" stroke-opacity="0.5" stroke-width="1.66606" stroke-linecap="round" stroke-linejoin="round"/>
</svg>
