<svg width="20" height="20" viewBox="0 0 20 20" fill="none" xmlns="http://www.w3.org/2000/svg">
<path d="M8.55347 17.4937C8.6997 17.7469 8.91002 17.9572 9.16328 18.1034C9.41655 18.2496 9.70384 18.3266 9.99628 18.3266C10.2887 18.3266 10.576 18.2496 10.8293 18.1034C11.0825 17.9572 11.2929 17.7469 11.4391 17.4937" stroke="#2ECC71" stroke-width="1.66606" stroke-linecap="round" stroke-linejoin="round"/>
<path d="M14.1615 14.1616H3.33211C3.17067 14.1616 3.01269 14.1148 2.87739 14.0267C2.74208 13.9386 2.63528 13.8131 2.56998 13.6655C2.50467 13.5179 2.48368 13.3544 2.50954 13.1951C2.5354 13.0357 2.60702 12.8873 2.71567 12.7679C3.8236 11.6258 4.99817 10.4121 4.99817 6.66428C4.99805 6.17262 5.07047 5.68365 5.2131 5.21313" stroke="#2ECC71" stroke-width="1.66606" stroke-linecap="round" stroke-linejoin="round"/>
<path d="M1.66602 1.66602L18.3267 18.3267" stroke="#2ECC71" stroke-width="1.66606" stroke-linecap="round" stroke-linejoin="round"/>
<path d="M7.2207 2.50733C7.97333 2.00475 8.8483 1.71594 9.75223 1.67174C10.6562 1.62753 11.5551 1.82959 12.3532 2.25633C13.1513 2.68308 13.8185 3.31851 14.2837 4.09481C14.7489 4.87111 14.9946 5.75915 14.9946 6.66416C14.9946 8.90252 15.636 10.5403 16.4165 11.704" stroke="#2ECC71" stroke-width="1.66606" stroke-linecap="round" stroke-linejoin="round"/>
</svg>
