<svg width="20" height="20" viewBox="0 0 20 20" fill="none" xmlns="http://www.w3.org/2000/svg">
<path d="M12.4955 17.4936V10.8294C12.4955 10.6084 12.4077 10.3966 12.2515 10.2403C12.0953 10.0841 11.8834 9.99634 11.6625 9.99634H8.33035C8.10941 9.99634 7.89753 10.0841 7.7413 10.2403C7.58508 10.3966 7.49731 10.6084 7.49731 10.8294V17.4936" stroke="#2ECC71" stroke-width="1.83267" stroke-linecap="round" stroke-linejoin="round"/>
<path d="M2.49902 8.33033C2.49897 8.08797 2.55178 7.84852 2.65379 7.62868C2.7558 7.40883 2.90454 7.21389 3.08964 7.05745L8.92087 2.06009C9.22158 1.80594 9.60258 1.6665 9.99631 1.6665C10.39 1.6665 10.771 1.80594 11.0718 2.06009L16.903 7.05745C17.0881 7.21389 17.2368 7.40883 17.3388 7.62868C17.4408 7.84852 17.4937 8.08797 17.4936 8.33033V15.8276C17.4936 16.2695 17.3181 16.6933 17.0056 17.0057C16.6932 17.3181 16.2694 17.4937 15.8275 17.4937H4.16509C3.72322 17.4937 3.29945 17.3181 2.987 17.0057C2.67455 16.6933 2.49902 16.2695 2.49902 15.8276V8.33033Z" stroke="#2ECC71" stroke-width="1.83267" stroke-linecap="round" stroke-linejoin="round"/>
</svg>
