<svg width="15" height="15" viewBox="0 0 15 15" fill="none" xmlns="http://www.w3.org/2000/svg">
<path d="M7.00929 0.637207C6.1643 1.4822 5.68959 2.62825 5.68959 3.82325C5.68959 5.01825 6.1643 6.1643 7.00929 7.00929C7.85428 7.85428 9.00034 8.32899 10.1953 8.32899C11.3903 8.32899 12.5364 7.85428 13.3814 7.00929C13.3814 8.26957 13.0077 9.50155 12.3075 10.5494C11.6073 11.5973 10.6121 12.414 9.44778 12.8963C8.28344 13.3786 7.00222 13.5048 5.76616 13.2589C4.5301 13.0131 3.3947 12.4062 2.50355 11.515C1.6124 10.6239 1.00552 9.48848 0.759648 8.25242C0.513779 7.01636 0.639968 5.73515 1.12226 4.5708C1.60454 3.40645 2.42127 2.41127 3.46915 1.7111C4.51704 1.01092 5.74901 0.637207 7.00929 0.637207Z" stroke="#A3F7BF" stroke-opacity="0.5" stroke-width="1.27442" stroke-linecap="round" stroke-linejoin="round"/>
</svg>
