<svg width="13" height="13" viewBox="0 0 13 13" fill="none" xmlns="http://www.w3.org/2000/svg">
<g clip-path="url(#clip0_3_1490)">
<path d="M10.8309 5.41532C10.8309 8.11922 7.8313 10.9352 6.82403 11.8049C6.7302 11.8755 6.61597 11.9136 6.49857 11.9136C6.38117 11.9136 6.26694 11.8755 6.17311 11.8049C5.16584 10.9352 2.16626 8.11922 2.16626 5.41532C2.16626 4.26632 2.6227 3.16438 3.43516 2.35191C4.24763 1.53945 5.34957 1.08301 6.49857 1.08301C7.64757 1.08301 8.74951 1.53945 9.56198 2.35191C10.3744 3.16438 10.8309 4.26632 10.8309 5.41532Z" stroke="#A3F7BF" stroke-opacity="0.5" stroke-width="1.08308" stroke-linecap="round" stroke-linejoin="round"/>
<path d="M6.4984 7.04C7.39565 7.04 8.12301 6.31264 8.12301 5.41539C8.12301 4.51814 7.39565 3.79077 6.4984 3.79077C5.60114 3.79077 4.87378 4.51814 4.87378 5.41539C4.87378 6.31264 5.60114 7.04 6.4984 7.04Z" stroke="#A3F7BF" stroke-opacity="0.5" stroke-width="1.08308" stroke-linecap="round" stroke-linejoin="round"/>
</g>
<defs>
<clipPath id="clip0_3_1490">
<rect width="12.9969" height="12.9969" fill="white"/>
</clipPath>
</defs>
</svg>
