<svg width="340" height="240" viewBox="0 0 340 240" fill="none" xmlns="http://www.w3.org/2000/svg">
<g clip-path="url(#clip0_8_78)">
<path opacity="0.7" d="M51.9993 49.4971C52.8277 49.4971 53.4993 48.8255 53.4993 47.9971C53.4993 47.1686 52.8277 46.4971 51.9993 46.4971C51.1708 46.4971 50.4993 47.1686 50.4993 47.9971C50.4993 48.8255 51.1708 49.4971 51.9993 49.4971Z" fill="#A3F7BF"/>
<path opacity="0.5" d="M287.992 42.9973C288.545 42.9973 288.992 42.5496 288.992 41.9973C288.992 41.445 288.545 40.9973 287.992 40.9973C287.44 40.9973 286.992 41.445 286.992 41.9973C286.992 42.5496 287.44 42.9973 287.992 42.9973Z" fill="#A3F7BF"/>
<path opacity="0.6" d="M239.994 59.4968C240.822 59.4968 241.494 58.8253 241.494 57.9968C241.494 57.1684 240.822 56.4968 239.994 56.4968C239.165 56.4968 238.494 57.1684 238.494 57.9968C238.494 58.8253 239.165 59.4968 239.994 59.4968Z" fill="#A3F7BF"/>
<path opacity="0.4" d="M84.9983 52.9971C85.5506 52.9971 85.9983 52.5494 85.9983 51.9971C85.9983 51.4448 85.5506 50.9971 84.9983 50.9971C84.446 50.9971 83.9983 51.4448 83.9983 51.9971C83.9983 52.5494 84.446 52.9971 84.9983 52.9971Z" fill="#A3F7BF"/>
<path opacity="0.5" d="M169.996 40.9973C170.548 40.9973 170.996 40.5496 170.996 39.9973C170.996 39.445 170.548 38.9973 169.996 38.9973C169.444 38.9973 168.996 39.445 168.996 39.9973C168.996 40.5496 169.444 40.9973 169.996 40.9973Z" fill="#A3F7BF"/>
<path opacity="0.4" d="M204.995 51.4971C205.823 51.4971 206.495 50.8255 206.495 49.9971C206.495 49.1686 205.823 48.4971 204.995 48.4971C204.166 48.4971 203.495 49.1686 203.495 49.9971C203.495 50.8255 204.166 51.4971 204.995 51.4971Z" fill="#A3F7BF"/>
<path opacity="0.75" d="M274.993 51.997C280.993 46.6636 284.66 47.3303 285.993 53.997C281.993 51.3303 278.326 50.6636 274.993 51.997Z" fill="#A3F7BF"/>
<path opacity="0.28" d="M64.9988 91.9958H52.9992C51.3424 91.9958 49.9993 93.339 49.9993 94.9958V173.993C49.9993 175.65 51.3424 176.993 52.9992 176.993H64.9988C66.6556 176.993 67.9988 175.65 67.9988 173.993V94.9958C67.9988 93.339 66.6556 91.9958 64.9988 91.9958Z" fill="#2ECC71"/>
<path opacity="0.42" d="M47.9993 93.9963L58.9993 69.9963L69.9993 93.9963H47.9993Z" fill="#2ECC71"/>
<path opacity="0.55" d="M58.999 70.9966C61.2082 70.9966 62.999 69.2057 62.999 66.9966C62.999 64.7874 61.2082 62.9966 58.999 62.9966C56.7899 62.9966 54.999 64.7874 54.999 66.9966C54.999 69.2057 56.7899 70.9966 58.999 70.9966Z" fill="#A3F7BF"/>
<path opacity="0.5" d="M58.999 62.9968V55.9968" stroke="#A3F7BF" stroke-width="1.49996"/>
<path opacity="0.6" d="M58.999 55.9968C60.1036 55.9968 60.999 55.1014 60.999 53.9968C60.999 52.8923 60.1036 51.9968 58.999 51.9968C57.8945 51.9968 56.999 52.8923 56.999 53.9968C56.999 55.1014 57.8945 55.9968 58.999 55.9968Z" fill="#A3F7BF"/>
<path opacity="0.28" d="M286.992 91.9958H274.993C273.336 91.9958 271.993 93.339 271.993 94.9958V173.993C271.993 175.65 273.336 176.993 274.993 176.993H286.992C288.649 176.993 289.992 175.65 289.992 173.993V94.9958C289.992 93.339 288.649 91.9958 286.992 91.9958Z" fill="#2ECC71"/>
<path opacity="0.42" d="M269.993 93.9963L280.993 69.9963L291.993 93.9963H269.993Z" fill="#2ECC71"/>
<path opacity="0.55" d="M280.993 70.9966C283.202 70.9966 284.993 69.2057 284.993 66.9966C284.993 64.7874 283.202 62.9966 280.993 62.9966C278.784 62.9966 276.993 64.7874 276.993 66.9966C276.993 69.2057 278.784 70.9966 280.993 70.9966Z" fill="#A3F7BF"/>
<path opacity="0.5" d="M280.993 62.9968V55.9968" stroke="#A3F7BF" stroke-width="1.49996"/>
<path opacity="0.6" d="M280.993 55.9968C282.097 55.9968 282.993 55.1014 282.993 53.9968C282.993 52.8923 282.097 51.9968 280.993 51.9968C279.888 51.9968 278.993 52.8923 278.993 53.9968C278.993 55.1014 279.888 55.9968 280.993 55.9968Z" fill="#A3F7BF"/>
<path opacity="0.22" d="M250.994 147.994H88.9982C86.7891 147.994 84.9983 149.785 84.9983 151.994V172.993C84.9983 175.202 86.7891 176.993 88.9982 176.993H250.994C253.203 176.993 254.993 175.202 254.993 172.993V151.994C254.993 149.785 253.203 147.994 250.994 147.994Z" fill="#2ECC71"/>
<path opacity="0.32" d="M84.9983 147.994C98.9979 127.995 112.997 127.995 126.997 147.994H84.9983Z" fill="#2ECC71"/>
<path opacity="0.32" d="M212.995 147.994C226.994 127.995 240.994 127.995 254.993 147.994H212.995Z" fill="#2ECC71"/>
<path d="M94.998 147.994C98.3314 142.661 101.665 142.661 104.998 147.994" stroke="#A3F7BF" stroke-opacity="0.3" stroke-width="0.799977"/>
<path d="M111.998 147.994C115.331 142.661 118.664 142.661 121.998 147.994" stroke="#A3F7BF" stroke-opacity="0.3" stroke-width="0.799977"/>
<path d="M217.994 147.994C221.328 142.661 224.661 142.661 227.994 147.994" stroke="#A3F7BF" stroke-opacity="0.3" stroke-width="0.799977"/>
<path d="M234.994 147.994C238.327 142.661 241.661 142.661 244.994 147.994" stroke="#A3F7BF" stroke-opacity="0.3" stroke-width="0.799977"/>
<path opacity="0.48" d="M114.997 147.994C151.663 103.995 188.329 103.995 224.994 147.994H114.997Z" fill="#2ECC71"/>
<path d="M114.997 147.994C151.663 103.995 188.329 103.995 224.994 147.994H114.997Z" stroke="#A3F7BF" stroke-opacity="0.3" stroke-width="0.499986"/>
<path opacity="0.9" d="M165.996 105.996C168.663 100.662 171.329 100.662 173.996 105.996C171.329 103.996 168.663 103.996 165.996 105.996Z" fill="#A3F7BF"/>
<path opacity="0.7" d="M169.996 95.9958V89.9958" stroke="#A3F7BF" stroke-width="1.19997"/>
<path opacity="0.7" d="M169.996 89.9958C171.1 89.9958 171.996 89.1004 171.996 87.9958C171.996 86.8913 171.1 85.9958 169.996 85.9958C168.891 85.9958 167.996 86.8913 167.996 87.9958C167.996 89.1004 168.891 89.9958 169.996 89.9958Z" fill="#A3F7BF"/>
<path opacity="0.55" d="M155.996 176.994C165.33 164.327 174.663 164.327 183.996 176.994H155.996Z" fill="#081C15"/>
<path opacity="0.35" d="M181.996 169.994H157.996V176.994H181.996V169.994Z" fill="#081C15"/>
<path d="M103.998 154.994C107.998 150.327 111.998 150.327 115.998 154.994" stroke="#A3F7BF" stroke-opacity="0.4" stroke-width="0.799977"/>
<path d="M223.994 154.994C227.994 150.327 231.994 150.327 235.994 154.994" stroke="#A3F7BF" stroke-opacity="0.4" stroke-width="0.799977"/>
<path d="M29.9998 176.993H309.992" stroke="#2ECC71" stroke-opacity="0.2" stroke-width="0.799977"/>
<path opacity="0.4" d="M269.993 176.993H69.9988V191.993H269.993V176.993Z" fill="url(#paint0_linear_8_78)"/>
</g>
<rect width="339.991" height="239.99" fill="url(#paint1_radial_8_78)"/>
<defs>
<linearGradient id="paint0_linear_8_78" x1="69.9988" y1="176.993" x2="69.9988" y2="191.993" gradientUnits="userSpaceOnUse">
<stop stop-color="#2ECC71" stop-opacity="0.15"/>
<stop offset="1" stop-color="#2ECC71" stop-opacity="0"/>
</linearGradient>
<radialGradient id="paint1_radial_8_78" cx="0" cy="0" r="1" gradientUnits="userSpaceOnUse" gradientTransform="translate(169.996 119.995) rotate(-90) scale(208.08 208.08)">
<stop stop-color="#2ECC71" stop-opacity="0.08"/>
<stop offset="0.7" stop-opacity="0"/>
</radialGradient>
<clipPath id="clip0_8_78">
<rect width="279.997" height="179.995" fill="white" transform="translate(29.9976 29.9976)"/>
</clipPath>
</defs>
</svg>
