<svg width="200" height="200" viewBox="0 0 200 200" fill="none" xmlns="http://www.w3.org/2000/svg">
<g clip-path="url(#clip0_70_335)">
<path opacity="0.95" d="M100.117 19.8472L111.842 99.8805L99.8705 91.8403L87.8443 99.7985L100.117 19.8472Z" fill="#2ECC71"/>
<path d="M99.5697 179.832L111.842 99.8805L99.8158 107.839L87.8442 99.7985L99.5697 179.832Z" fill="#A3F7BF" fill-opacity="0.25"/>
<path d="M99.8192 106.839C103.685 106.852 106.829 103.729 106.842 99.8633C106.856 95.9977 103.733 92.8533 99.867 92.8401C96.0014 92.8269 92.857 95.9499 92.8438 99.8155C92.8305 103.681 95.9535 106.826 99.8192 106.839Z" fill="#0B2E22" stroke="#2ECC71" stroke-width="1.99982"/>
<path d="M99.8332 102.84C101.49 102.845 102.838 101.507 102.843 99.85C102.849 98.1931 101.511 96.8454 99.8537 96.8397C98.1969 96.8341 96.8492 98.1726 96.8435 99.8295C96.8378 101.486 98.1764 102.834 99.8332 102.84Z" fill="#2ECC71"/>
</g>
<defs>
<clipPath id="clip0_70_335">
<rect width="59.9946" height="159.999" fill="white" transform="translate(70.1194 19.7379) rotate(0.195804)"/>
</clipPath>
</defs>
</svg>
