<svg width="279" height="279" viewBox="0 0 279 279" fill="none" xmlns="http://www.w3.org/2000/svg">
<path d="M139.477 13.9476V29.8878" stroke="#A3F7BF" stroke-opacity="0.35" stroke-width="1.49439"/>
<path d="M161.274 15.8547L159.544 25.666" stroke="#A3F7BF" stroke-opacity="0.15" stroke-width="0.797008"/>
<path d="M182.41 21.5179L179.002 30.8797" stroke="#A3F7BF" stroke-opacity="0.15" stroke-width="0.797008"/>
<path d="M202.241 30.7653L197.26 39.3931" stroke="#A3F7BF" stroke-opacity="0.15" stroke-width="0.797008"/>
<path d="M220.165 43.3158L213.761 50.9476" stroke="#A3F7BF" stroke-opacity="0.15" stroke-width="0.797008"/>
<path d="M235.637 58.7881L228.005 65.1919" stroke="#A3F7BF" stroke-opacity="0.15" stroke-width="0.797008"/>
<path d="M248.188 76.712L239.56 81.6933" stroke="#A3F7BF" stroke-opacity="0.15" stroke-width="0.797008"/>
<path d="M257.435 96.5431L248.073 99.9505" stroke="#A3F7BF" stroke-opacity="0.15" stroke-width="0.797008"/>
<path d="M263.098 117.679L253.287 119.409" stroke="#A3F7BF" stroke-opacity="0.15" stroke-width="0.797008"/>
<path d="M265.005 139.476H249.065" stroke="#A3F7BF" stroke-opacity="0.35" stroke-width="1.49439"/>
<path d="M263.098 161.274L253.287 159.544" stroke="#A3F7BF" stroke-opacity="0.15" stroke-width="0.797008"/>
<path d="M257.435 182.41L248.073 179.002" stroke="#A3F7BF" stroke-opacity="0.15" stroke-width="0.797008"/>
<path d="M248.188 202.241L239.56 197.26" stroke="#A3F7BF" stroke-opacity="0.15" stroke-width="0.797008"/>
<path d="M235.637 220.165L228.005 213.761" stroke="#A3F7BF" stroke-opacity="0.15" stroke-width="0.797008"/>
<path d="M220.165 235.637L213.761 228.005" stroke="#A3F7BF" stroke-opacity="0.15" stroke-width="0.797008"/>
<path d="M202.241 248.188L197.26 239.56" stroke="#A3F7BF" stroke-opacity="0.15" stroke-width="0.797008"/>
<path d="M182.41 257.435L179.002 248.073" stroke="#A3F7BF" stroke-opacity="0.15" stroke-width="0.797008"/>
<path d="M161.274 263.098L159.544 253.287" stroke="#A3F7BF" stroke-opacity="0.15" stroke-width="0.797008"/>
<path d="M139.477 265.005V249.065" stroke="#A3F7BF" stroke-opacity="0.35" stroke-width="1.49439"/>
<path d="M117.679 263.098L119.409 253.287" stroke="#A3F7BF" stroke-opacity="0.15" stroke-width="0.797008"/>
<path d="M96.543 257.435L99.9504 248.073" stroke="#A3F7BF" stroke-opacity="0.15" stroke-width="0.797008"/>
<path d="M76.7122 248.188L81.6935 239.56" stroke="#A3F7BF" stroke-opacity="0.15" stroke-width="0.797008"/>
<path d="M58.7881 235.637L65.1919 228.005" stroke="#A3F7BF" stroke-opacity="0.15" stroke-width="0.797008"/>
<path d="M43.3159 220.165L50.9477 213.761" stroke="#A3F7BF" stroke-opacity="0.15" stroke-width="0.797008"/>
<path d="M30.7654 202.241L39.3933 197.26" stroke="#A3F7BF" stroke-opacity="0.15" stroke-width="0.797008"/>
<path d="M21.5181 182.41L30.8799 179.002" stroke="#A3F7BF" stroke-opacity="0.15" stroke-width="0.797008"/>
<path d="M15.8547 161.274L25.666 159.544" stroke="#A3F7BF" stroke-opacity="0.15" stroke-width="0.797008"/>
<path d="M13.9478 139.476H29.8879" stroke="#A3F7BF" stroke-opacity="0.35" stroke-width="1.49439"/>
<path d="M15.8547 117.679L25.666 119.409" stroke="#A3F7BF" stroke-opacity="0.15" stroke-width="0.797008"/>
<path d="M21.5181 96.5431L30.8799 99.9505" stroke="#A3F7BF" stroke-opacity="0.15" stroke-width="0.797008"/>
<path d="M30.7654 76.712L39.3933 81.6933" stroke="#A3F7BF" stroke-opacity="0.15" stroke-width="0.797008"/>
<path d="M43.3159 58.7881L50.9477 65.1919" stroke="#A3F7BF" stroke-opacity="0.15" stroke-width="0.797008"/>
<path d="M58.7881 43.3158L65.1919 50.9476" stroke="#A3F7BF" stroke-opacity="0.15" stroke-width="0.797008"/>
<path d="M76.7122 30.7653L81.6935 39.3931" stroke="#A3F7BF" stroke-opacity="0.15" stroke-width="0.797008"/>
<path d="M96.543 21.5179L99.9504 30.8797" stroke="#A3F7BF" stroke-opacity="0.15" stroke-width="0.797008"/>
<path d="M117.679 15.8547L119.409 25.666" stroke="#A3F7BF" stroke-opacity="0.15" stroke-width="0.797008"/>
</svg>
