<svg width="20" height="20" viewBox="0 0 20 20" fill="none" xmlns="http://www.w3.org/2000/svg">
<g clip-path="url(#clip0_3_1448)">
<path d="M13.5285 6.46436L12.0257 10.9719C11.9439 11.2173 11.8061 11.4403 11.6232 11.6232C11.4403 11.8061 11.2173 11.9439 10.9719 12.0257L6.46436 13.5285L7.96715 9.02093C8.04893 8.77553 8.18674 8.55255 8.36965 8.36965C8.55255 8.18674 8.77553 8.04893 9.02093 7.96715L13.5285 6.46436Z" stroke="#A3F7BF" stroke-opacity="0.35" stroke-width="1.49946" stroke-linecap="round" stroke-linejoin="round"/>
<path d="M9.99634 18.3267C14.597 18.3267 18.3267 14.597 18.3267 9.99634C18.3267 5.39563 14.597 1.66602 9.99634 1.66602C5.39563 1.66602 1.66602 5.39563 1.66602 9.99634C1.66602 14.597 5.39563 18.3267 9.99634 18.3267Z" stroke="#A3F7BF" stroke-opacity="0.35" stroke-width="1.49946" stroke-linecap="round" stroke-linejoin="round"/>
</g>
<defs>
<clipPath id="clip0_3_1448">
<rect width="19.9928" height="19.9928" fill="white"/>
</clipPath>
</defs>
</svg>
