<svg width="170" height="131" viewBox="0 0 170 131" fill="none" xmlns="http://www.w3.org/2000/svg">
<g clip-path="url(#clip0_3_796)">
<path opacity="0.95" d="M154.475 103.802L78.6949 75.5153L91.5084 68.8989L90.3293 54.5263L154.475 103.802Z" fill="#2ECC71"/>
<path d="M14.5489 26.2394L78.695 75.5152L77.5159 61.1426L90.3294 54.5262L14.5489 26.2394Z" fill="#A3F7BF" fill-opacity="0.25"/>
<path d="M78.3902 61.6274C76.5161 65.0084 77.7377 69.2685 81.1186 71.1426C84.4996 73.0167 88.7597 71.7951 90.6338 68.4141C92.5079 65.0332 91.2863 60.7731 87.9054 58.899C84.5244 57.0249 80.2643 58.2464 78.3902 61.6274Z" fill="#0B2E22" stroke="#2ECC71" stroke-width="1.99982"/>
<path d="M81.888 63.5664C81.0847 65.0156 81.6083 66.8415 83.0574 67.6447C84.5065 68.448 86.3325 67.9244 87.1357 66.4753C87.939 65.0262 87.4154 63.2003 85.9663 62.397C84.5172 61.5938 82.6913 62.1173 81.888 63.5664Z" fill="#2ECC71"/>
</g>
<defs>
<clipPath id="clip0_3_796">
<rect width="59.9946" height="159.999" fill="white" transform="translate(169.024 77.5691) rotate(119)"/>
</clipPath>
</defs>
</svg>
